<mxfile host="app.diagrams.net" agent="Mozilla/5.0 (Windows NT 10.0; Win64; x64) AppleWebKit/537.36 (KHTML, like Gecko) Chrome/128.0.0.0 Safari/537.36" version="24.7.10">
  <diagram name="PÃ¡gina-1" id="O_KCxSnMXbxwiuxBqIPB">
    <mxGraphModel grid="1" page="1" gridSize="10" guides="1" tooltips="1" connect="1" arrows="1" fold="1" pageScale="1" pageWidth="827" pageHeight="1169" math="0" shadow="0">
      <root>
        <mxCell id="0" />
        <mxCell id="1" parent="0" />
        <mxCell id="G3m4osRAae25aZZDrZEH-3" value="Pessoa" style="swimlane;whiteSpace=wrap;html=1;startSize=20;" vertex="1" parent="1">
          <mxGeometry x="119" y="550" width="590" height="290" as="geometry" />
        </mxCell>
        <mxCell id="G3m4osRAae25aZZDrZEH-6" value="&lt;div style=&quot;&quot;&gt;&lt;span style=&quot;background-color: initial;&quot;&gt;#&lt;/span&gt;&lt;span style=&quot;background-color: initial;&quot;&gt;string nome;&lt;/span&gt;&lt;/div&gt;&lt;div style=&quot;&quot;&gt;#int hora;&lt;/div&gt;&lt;div style=&quot;&quot;&gt;#int minuto;&lt;/div&gt;&lt;div style=&quot;&quot;&gt;#string cpf;&lt;/div&gt;&lt;div style=&quot;&quot;&gt;#int idade;&lt;/div&gt;&lt;div style=&quot;&quot;&gt;#string telefone;&lt;/div&gt;&lt;div style=&quot;&quot;&gt;#vector&amp;lt;Pessoa*&amp;gt; pessoas;&lt;/div&gt;&lt;div style=&quot;&quot;&gt;#vector&amp;lt;Pessoa*&amp;gt; pessoaList;&lt;/div&gt;" style="text;html=1;align=left;verticalAlign=middle;resizable=0;points=[];autosize=1;strokeColor=none;fillColor=none;" vertex="1" parent="G3m4osRAae25aZZDrZEH-3">
          <mxGeometry y="20" width="190" height="130" as="geometry" />
        </mxCell>
        <mxCell id="G3m4osRAae25aZZDrZEH-7" value="" style="endArrow=none;html=1;rounded=0;entryX=1;entryY=0.5;entryDx=0;entryDy=0;" edge="1" parent="G3m4osRAae25aZZDrZEH-3" target="G3m4osRAae25aZZDrZEH-3">
          <mxGeometry width="50" height="50" relative="1" as="geometry">
            <mxPoint y="150" as="sourcePoint" />
            <mxPoint x="200" y="150" as="targetPoint" />
          </mxGeometry>
        </mxCell>
        <mxCell id="G3m4osRAae25aZZDrZEH-8" value="+&lt;span style=&quot;background-color: initial;&quot;&gt;&amp;nbsp;Pessoa(const string&amp;amp; nome, int hora, int minuto,const string&amp;amp; cpf, int idade, const string&amp;amp; telefone);&lt;/span&gt;&lt;div&gt;&amp;nbsp;virtual ~Pessoa() {}&amp;nbsp;&lt;/div&gt;&lt;div&gt;+string getNome() const;&lt;/div&gt;&lt;div&gt;+int getHora() const;&lt;/div&gt;&lt;div&gt;+int getMinuto() const;&lt;/div&gt;&lt;div&gt;+string getCPF() const;&lt;/div&gt;&lt;div&gt;+int getIdade() const;&lt;/div&gt;&lt;div&gt;+string getTelefone() const;&lt;/div&gt;&lt;div&gt;&lt;span style=&quot;background-color: initial;&quot;&gt;+virtual void atualizarDados (const string&amp;amp; nome, int hora, int minuto, int idade, const string&amp;amp; telefone)= 0;&lt;/span&gt;&lt;/div&gt;" style="text;html=1;align=left;verticalAlign=middle;resizable=0;points=[];autosize=1;strokeColor=none;fillColor=none;" vertex="1" parent="G3m4osRAae25aZZDrZEH-3">
          <mxGeometry y="150" width="590" height="140" as="geometry" />
        </mxCell>
        <mxCell id="G3m4osRAae25aZZDrZEH-9" value="Fisioterapeuta" style="swimlane;whiteSpace=wrap;html=1;startSize=20;" vertex="1" parent="1">
          <mxGeometry x="-250" y="900" width="630" height="285" as="geometry" />
        </mxCell>
        <mxCell id="G3m4osRAae25aZZDrZEH-11" value="" style="endArrow=none;html=1;rounded=0;" edge="1" parent="G3m4osRAae25aZZDrZEH-9">
          <mxGeometry width="50" height="50" relative="1" as="geometry">
            <mxPoint y="95" as="sourcePoint" />
            <mxPoint x="630" y="95" as="targetPoint" />
          </mxGeometry>
        </mxCell>
        <mxCell id="htdBT8kQhpIJqPni-b6F-2" value="-drf: string&lt;div style=&quot;&quot;&gt;-vector&amp;lt;string&amp;gt; pacientes&lt;/div&gt;&lt;div style=&quot;&quot;&gt;&lt;span style=&quot;background-color: initial;&quot;&gt;#vector&amp;lt;pair&amp;lt;int, int&amp;gt;&amp;gt; horariosOcupados&lt;/span&gt;&lt;br&gt;&lt;/div&gt;&lt;div style=&quot;&quot;&gt;&lt;span style=&quot;background-color: initial;&quot;&gt;#vector&amp;lt;pair&amp;lt;int, int&amp;gt;&amp;gt; horarios_livres&lt;/span&gt;&lt;/div&gt;" style="text;html=1;align=left;verticalAlign=middle;resizable=0;points=[];autosize=1;strokeColor=none;fillColor=none;" vertex="1" parent="G3m4osRAae25aZZDrZEH-9">
          <mxGeometry y="20" width="240" height="70" as="geometry" />
        </mxCell>
        <mxCell id="htdBT8kQhpIJqPni-b6F-1" value="&lt;div style=&quot;&quot;&gt;&lt;span style=&quot;background-color: initial;&quot;&gt;Fisioterapeuta(const string&amp;amp; nome,&lt;/span&gt;&lt;span style=&quot;background-color: initial;&quot;&gt;int hora,&amp;nbsp;&lt;/span&gt;&lt;span style=&quot;background-color: initial;&quot;&gt;int minuto,&amp;nbsp;&lt;/span&gt;&lt;span style=&quot;background-color: initial;&quot;&gt;const string&amp;amp; cpf,&lt;/span&gt;&lt;span style=&quot;background-color: initial;&quot;&gt;int idade,&amp;nbsp;&lt;/span&gt;&lt;/div&gt;&lt;div style=&quot;&quot;&gt;&lt;span style=&quot;background-color: initial;&quot;&gt;const string&amp;amp; telefone,&amp;nbsp;&lt;/span&gt;&lt;span style=&quot;background-color: initial;&quot;&gt;const string&amp;amp; drf)&lt;/span&gt;&lt;/div&gt;" style="text;html=1;align=left;verticalAlign=middle;resizable=0;points=[];autosize=1;strokeColor=none;fillColor=none;" vertex="1" parent="G3m4osRAae25aZZDrZEH-9">
          <mxGeometry y="90" width="460" height="40" as="geometry" />
        </mxCell>
        <mxCell id="htdBT8kQhpIJqPni-b6F-4" value="&lt;div&gt;+&lt;span style=&quot;background-color: initial;&quot;&gt;string getDRF() const;&lt;/span&gt;&lt;/div&gt;&lt;div&gt;+void atualizarFisioterapeuta(vector &amp;lt;Fisioterapeuta&amp;gt; &amp;amp; fisioList, const string &amp;amp;CPF, int idade, const string&amp;amp; DRF );&lt;/div&gt;&lt;div&gt;+void adicionarpaciente(const string&amp;amp; nome_paciente);&lt;/div&gt;&lt;div&gt;+void adicionarHorarioocupado(int hora,int minuto);&lt;/div&gt;&lt;div&gt;+void mostrarpacientes() const;&lt;/div&gt;&lt;div&gt;+vector &amp;lt;pair&amp;lt;int, int&amp;gt;&amp;gt; getHorariosLivres () const;&lt;/div&gt;&lt;div&gt;&lt;div&gt;+&lt;span style=&quot;background-color: initial;&quot;&gt;const&amp;nbsp;&lt;/span&gt;&lt;span style=&quot;background-color: initial;&quot;&gt;vector &amp;lt;pair&amp;lt;int, int&amp;gt;&amp;gt; gethorariosOcupados () ;&lt;/span&gt;&lt;/div&gt;&lt;/div&gt;&lt;div&gt;&lt;span style=&quot;background-color: initial;&quot;&gt;+void atualizarDados(const string&amp;amp; nome, int hora, int minuto, int idade, const string&amp;amp; telefone) override;&lt;/span&gt;&lt;br&gt;&lt;/div&gt;&lt;div&gt;+void atualizarDRF(const string&amp;amp; novoDRF);&lt;/div&gt;&lt;div&gt;+vector&amp;lt;string&amp;gt; mostrarPacientesPorHorario(int horaInicio, int minutoInicio, int horaFim, int minutoFim) const;&lt;/div&gt;&lt;div&gt;&lt;br&gt;&lt;/div&gt;" style="text;html=1;align=left;verticalAlign=middle;resizable=0;points=[];autosize=1;strokeColor=none;fillColor=none;" vertex="1" parent="G3m4osRAae25aZZDrZEH-9">
          <mxGeometry y="130" width="630" height="170" as="geometry" />
        </mxCell>
        <mxCell id="G3m4osRAae25aZZDrZEH-13" value="&lt;font style=&quot;vertical-align: inherit;&quot;&gt;&lt;font style=&quot;vertical-align: inherit;&quot;&gt;Pacote&lt;/font&gt;&lt;/font&gt;" style="swimlane;whiteSpace=wrap;html=1;" vertex="1" parent="1">
          <mxGeometry x="547.5" y="1230" width="315" height="200" as="geometry" />
        </mxCell>
        <mxCell id="mawIJAWK86mIXiaCxJ28-10" value="-&lt;span style=&quot;background-color: initial;&quot;&gt;int quantidadeAulas;&lt;/span&gt;&lt;div&gt;-double valorPorPacote;&lt;/div&gt;" style="text;html=1;align=left;verticalAlign=middle;resizable=0;points=[];autosize=1;strokeColor=none;fillColor=none;" vertex="1" parent="G3m4osRAae25aZZDrZEH-13">
          <mxGeometry x="5" y="23" width="150" height="40" as="geometry" />
        </mxCell>
        <mxCell id="mawIJAWK86mIXiaCxJ28-11" value="" style="endArrow=none;html=1;rounded=0;" edge="1" parent="G3m4osRAae25aZZDrZEH-13">
          <mxGeometry width="50" height="50" relative="1" as="geometry">
            <mxPoint y="73" as="sourcePoint" />
            <mxPoint x="315" y="73" as="targetPoint" />
          </mxGeometry>
        </mxCell>
        <mxCell id="mawIJAWK86mIXiaCxJ28-12" value="&lt;span style=&quot;background-color: initial;&quot;&gt;Pacote(int quantidadeAulas, double valorPorPacote);&lt;/span&gt;&lt;div&gt;&lt;br&gt;&lt;/div&gt;&lt;div&gt;+int getQuantidadeAulas() const;&lt;/div&gt;&lt;div&gt;+double getValorPorPacote() const;&lt;/div&gt;" style="text;html=1;align=left;verticalAlign=middle;resizable=0;points=[];autosize=1;strokeColor=none;fillColor=none;" vertex="1" parent="G3m4osRAae25aZZDrZEH-13">
          <mxGeometry y="80" width="310" height="70" as="geometry" />
        </mxCell>
        <mxCell id="G3m4osRAae25aZZDrZEH-14" value="Paciente" style="swimlane;whiteSpace=wrap;html=1;startSize=20;" vertex="1" parent="1">
          <mxGeometry x="410" y="900" width="590" height="260" as="geometry" />
        </mxCell>
        <mxCell id="G3m4osRAae25aZZDrZEH-15" value="" style="endArrow=none;html=1;rounded=0;" edge="1" parent="G3m4osRAae25aZZDrZEH-14">
          <mxGeometry width="50" height="50" relative="1" as="geometry">
            <mxPoint y="95" as="sourcePoint" />
            <mxPoint x="590" y="95" as="targetPoint" />
          </mxGeometry>
        </mxCell>
        <mxCell id="sKz8r6Hxp1ZSa1gsHCwT-9" value="-bool pagamento;&lt;div&gt;#&lt;span style=&quot;background-color: initial;&quot;&gt;string responsavel;&lt;/span&gt;&lt;/div&gt;&lt;div&gt;#string tpacote;&lt;/div&gt;" style="text;html=1;align=left;verticalAlign=middle;resizable=0;points=[];autosize=1;strokeColor=none;fillColor=none;" vertex="1" parent="G3m4osRAae25aZZDrZEH-14">
          <mxGeometry y="25" width="130" height="60" as="geometry" />
        </mxCell>
        <mxCell id="sKz8r6Hxp1ZSa1gsHCwT-10" value="&lt;div&gt;Paciente(const string&amp;amp; nome, int hora, int minuto,&lt;span style=&quot;background-color: initial;&quot;&gt;const string&amp;amp; cpf, int idade, const string&amp;amp; telefone,&amp;nbsp;&lt;/span&gt;&lt;/div&gt;&lt;div&gt;&lt;span style=&quot;background-color: initial;&quot;&gt;bool pagamento, const string&amp;amp; responsavel,&amp;nbsp;&lt;/span&gt;&lt;span style=&quot;background-color: initial;&quot;&gt;const string&amp;amp; tpacote);&lt;/span&gt;&lt;/div&gt;&lt;div&gt;+string getResponsavel() const;&lt;/div&gt;&lt;div&gt;+string getTipoPacote () const;&lt;/div&gt;&lt;div&gt;+bool verificarpagamento() const;&lt;/div&gt;&lt;div&gt;+void setPagamento(bool pagamento);&lt;/div&gt;&lt;div&gt;+void atualizarDados(const string&amp;amp; nome, int hora, int minuto, int idade, const string&amp;amp; telefone) override;&lt;/div&gt;&lt;div&gt;+void atualizarResponsavel(const string&amp;amp; novoResponsavel);&lt;/div&gt;&lt;div&gt;+void atualizarTipoPacote(const string&amp;amp; novoTipoPacote);&lt;/div&gt;&lt;div&gt;+void atualizarPagamento(bool novoPagamento);&lt;/div&gt;" style="text;html=1;align=left;verticalAlign=middle;resizable=0;points=[];autosize=1;strokeColor=none;fillColor=none;" vertex="1" parent="G3m4osRAae25aZZDrZEH-14">
          <mxGeometry y="100" width="580" height="160" as="geometry" />
        </mxCell>
        <mxCell id="G3m4osRAae25aZZDrZEH-16" value="gerenciador" style="swimlane;whiteSpace=wrap;html=1;" vertex="1" parent="1">
          <mxGeometry x="30" y="200" width="780" height="310" as="geometry" />
        </mxCell>
        <mxCell id="sKz8r6Hxp1ZSa1gsHCwT-3" value="+ vector&amp;lt;Pessoa*&amp;gt; pessoaList;&lt;div&gt;&lt;span style=&quot;background-color: initial;&quot;&gt;+vector &amp;lt;Paciente*&amp;gt; pacienteList;&lt;/span&gt;&lt;/div&gt;&lt;div&gt;+vector &amp;lt;Fisioterapeuta*&amp;gt; fisioList;&lt;/div&gt;&lt;div&gt;+void salvarDados();&lt;/div&gt;&lt;div&gt;+void carregarDados();&lt;/div&gt;" style="text;html=1;align=left;verticalAlign=middle;resizable=0;points=[];autosize=1;strokeColor=none;fillColor=none;" vertex="1" parent="G3m4osRAae25aZZDrZEH-16">
          <mxGeometry y="210" width="210" height="90" as="geometry" />
        </mxCell>
        <mxCell id="sKz8r6Hxp1ZSa1gsHCwT-5" value="&lt;div&gt;+void cadastrarpaciente(Paciente* paciente);&lt;/div&gt;&lt;div&gt;+void cadastrarfisioterapeuta(Fisioterapeuta* fisioterapeuta);&lt;/div&gt;&lt;span style=&quot;background-color: initial;&quot;&gt;+void pesquisarPacientePorNome(const string&amp;amp; nome) const;&lt;/span&gt;&lt;br&gt;&lt;span style=&quot;background-color: initial;&quot;&gt;+void pesquisarFisioPorNome(const string&amp;amp; nome) const;&lt;/span&gt;&lt;br&gt;&lt;span style=&quot;background-color: initial;&quot;&gt;+void listarPacientesPorHorario() const;&lt;/span&gt;&lt;br&gt;&lt;span style=&quot;background-color: initial;&quot;&gt;+void atualizarPessoa(const string&amp;amp; cpf, const string&amp;amp; novoNome, int novaHora, int novoMinuto, int novaIdade, const string&amp;amp; novoTelefone);&lt;/span&gt;&lt;br&gt;&lt;span style=&quot;background-color: initial;&quot;&gt;+void atualizarPaciente(const string&amp;amp; cpf, const string&amp;amp; novoResponsavel, const string&amp;amp; novoTipoPacote, bool novoPagamento);&lt;/span&gt;&lt;br&gt;&lt;span style=&quot;background-color: initial;&quot;&gt;+void atualizarFisioterapeuta(const string&amp;amp; cpf, const string&amp;amp; novoDRF);&lt;/span&gt;&lt;br&gt;&lt;span style=&quot;background-color: initial;&quot;&gt;+void mudarHorarioPaciente(const string&amp;amp; cpf, int novaHora, int novoMinuto);&lt;/span&gt;&lt;br&gt;&lt;span style=&quot;background-color: initial;&quot;&gt;+void removerPaciente(const string&amp;amp; cpf);&lt;/span&gt;&lt;br&gt;&lt;span style=&quot;background-color: initial;&quot;&gt;+void removerFisioterapeuta(const string&amp;amp; cpf);&lt;/span&gt;&lt;div&gt;&lt;br&gt;&lt;div&gt;&lt;br&gt;&lt;/div&gt;&lt;/div&gt;" style="text;html=1;align=left;verticalAlign=middle;resizable=0;points=[];autosize=1;strokeColor=none;fillColor=none;" vertex="1" parent="G3m4osRAae25aZZDrZEH-16">
          <mxGeometry y="55" width="770" height="200" as="geometry" />
        </mxCell>
        <mxCell id="sKz8r6Hxp1ZSa1gsHCwT-6" value="gerenciador();&lt;br/&gt;    ~gerenciador();" style="text;html=1;align=center;verticalAlign=middle;whiteSpace=wrap;rounded=0;" vertex="1" parent="G3m4osRAae25aZZDrZEH-16">
          <mxGeometry x="10" y="30" width="60" height="30" as="geometry" />
        </mxCell>
        <mxCell id="mawIJAWK86mIXiaCxJ28-9" value="" style="endArrow=none;html=1;rounded=0;exitX=0.5;exitY=0;exitDx=0;exitDy=0;" edge="1" parent="G3m4osRAae25aZZDrZEH-16" source="G3m4osRAae25aZZDrZEH-16">
          <mxGeometry width="50" height="50" relative="1" as="geometry">
            <mxPoint x="340" y="20" as="sourcePoint" />
            <mxPoint x="390" y="-30" as="targetPoint" />
          </mxGeometry>
        </mxCell>
        <mxCell id="G3m4osRAae25aZZDrZEH-18" value="" style="endArrow=classic;html=1;rounded=0;exitX=0.699;exitY=0;exitDx=0;exitDy=0;exitPerimeter=0;entryX=0.25;entryY=1;entryDx=0;entryDy=0;" edge="1" parent="1" source="G3m4osRAae25aZZDrZEH-9" target="G3m4osRAae25aZZDrZEH-3">
          <mxGeometry width="50" height="50" relative="1" as="geometry">
            <mxPoint x="250" y="600" as="sourcePoint" />
            <mxPoint x="310" y="550" as="targetPoint" />
          </mxGeometry>
        </mxCell>
        <mxCell id="G3m4osRAae25aZZDrZEH-21" value="" style="endArrow=classic;html=1;rounded=0;exitX=0.309;exitY=0.004;exitDx=0;exitDy=0;exitPerimeter=0;entryX=0.75;entryY=1;entryDx=0;entryDy=0;" edge="1" parent="1" source="G3m4osRAae25aZZDrZEH-14" target="G3m4osRAae25aZZDrZEH-3">
          <mxGeometry width="50" height="50" relative="1" as="geometry">
            <mxPoint x="340" y="640" as="sourcePoint" />
            <mxPoint x="540" y="550" as="targetPoint" />
          </mxGeometry>
        </mxCell>
        <mxCell id="G3m4osRAae25aZZDrZEH-22" value="" style="endArrow=classic;html=1;rounded=0;exitX=0.5;exitY=0;exitDx=0;exitDy=0;entryX=0.5;entryY=1;entryDx=0;entryDy=0;" edge="1" parent="1" source="G3m4osRAae25aZZDrZEH-13" target="G3m4osRAae25aZZDrZEH-14">
          <mxGeometry width="50" height="50" relative="1" as="geometry">
            <mxPoint x="470" y="960" as="sourcePoint" />
            <mxPoint x="520" y="910" as="targetPoint" />
          </mxGeometry>
        </mxCell>
        <mxCell id="mawIJAWK86mIXiaCxJ28-2" value="Menu" style="swimlane;whiteSpace=wrap;html=1;" vertex="1" parent="1">
          <mxGeometry x="179" y="-190" width="470" height="360" as="geometry" />
        </mxCell>
        <mxCell id="mawIJAWK86mIXiaCxJ28-3" value="" style="endArrow=none;html=1;rounded=0;" edge="1" parent="mawIJAWK86mIXiaCxJ28-2">
          <mxGeometry width="50" height="50" relative="1" as="geometry">
            <mxPoint x="1" y="90" as="sourcePoint" />
            <mxPoint x="471" y="90" as="targetPoint" />
          </mxGeometry>
        </mxCell>
        <mxCell id="mawIJAWK86mIXiaCxJ28-4" value="&lt;div&gt;-gerenciador Gerenciador;&lt;/div&gt;&lt;div&gt;&lt;span style=&quot;background-color: initial;&quot;&gt;-void limparTela() const;&lt;/span&gt;&lt;/div&gt;&lt;div&gt;&lt;span style=&quot;background-color: initial;&quot;&gt;-int lerOpcao() const;&lt;/span&gt;&lt;/div&gt;&lt;div&gt;&lt;br&gt;&lt;/div&gt;" style="text;html=1;align=left;verticalAlign=middle;resizable=0;points=[];autosize=1;strokeColor=none;fillColor=none;" vertex="1" parent="mawIJAWK86mIXiaCxJ28-2">
          <mxGeometry y="20" width="160" height="70" as="geometry" />
        </mxCell>
        <mxCell id="mawIJAWK86mIXiaCxJ28-8" value="&lt;div&gt;Menu();&lt;/div&gt;&lt;div&gt;&lt;br&gt;&lt;/div&gt;&lt;div&gt;+void exibirMenuPrincipal();&lt;/div&gt;&lt;div&gt;+void cadastrarPaciente();&lt;/div&gt;&lt;div&gt;+void cadastrarFisioterapeuta();&lt;/div&gt;&lt;div&gt;+void pesquisarPaciente();&lt;/div&gt;&lt;div&gt;+void pesquisarFisioterapeuta();&lt;/div&gt;&lt;div&gt;+void listarPacientesPorHorario();&lt;/div&gt;&lt;div&gt;+void mostrarFisioPorHorario();&lt;/div&gt;&lt;div&gt;+void atualizarDadosPessoa();&lt;/div&gt;&lt;div&gt;+void atualizarDadosPaciente();&lt;/div&gt;&lt;div&gt;+void atualizarDadosFisioterapeuta();&lt;/div&gt;&lt;div&gt;+void mudarHorarioPaciente();&lt;/div&gt;&lt;div&gt;+void removerPaciente();&lt;/div&gt;&lt;div&gt;+void removerFisioterapeuta();&lt;/div&gt;" style="text;html=1;align=left;verticalAlign=middle;resizable=0;points=[];autosize=1;strokeColor=none;fillColor=none;" vertex="1" parent="mawIJAWK86mIXiaCxJ28-2">
          <mxGeometry y="105" width="220" height="230" as="geometry" />
        </mxCell>
        <mxCell id="mawIJAWK86mIXiaCxJ28-1" value="" style="endArrow=none;html=1;rounded=0;" edge="1" parent="1">
          <mxGeometry width="50" height="50" relative="1" as="geometry">
            <mxPoint x="413" y="550" as="sourcePoint" />
            <mxPoint x="413" y="510" as="targetPoint" />
          </mxGeometry>
        </mxCell>
      </root>
    </mxGraphModel>
  </diagram>
</mxfile>
